<?xml version="1.0" encoding="UTF-8" standalone="no"?>
<svg
   version="1.0"
   width="292px"
   height="280px"
   viewBox="0 0 2920 2800"
   preserveAspectRatio="xMidYMid meet"
   id="svg5404"
   sodipodi:docname="logo-text-light.svg"
   inkscape:version="1.2.1 (9c6d41e410, 2022-07-14)"
   xmlns:inkscape="http://www.inkscape.org/namespaces/inkscape"
   xmlns:sodipodi="http://sodipodi.sourceforge.net/DTD/sodipodi-0.dtd"
   xmlns="http://www.w3.org/2000/svg"
   xmlns:svg="http://www.w3.org/2000/svg">
  <defs
     id="defs5408" />
  <sodipodi:namedview
     id="namedview5406"
     pagecolor="#505050"
     bordercolor="#ffffff"
     borderopacity="1"
     inkscape:showpageshadow="0"
     inkscape:pageopacity="0"
     inkscape:pagecheckerboard="1"
     inkscape:deskcolor="#505050"
     showgrid="false"
     inkscape:zoom="1.6591756"
     inkscape:cx="107.58355"
     inkscape:cy="143.44474"
     inkscape:window-width="1600"
     inkscape:window-height="837"
     inkscape:window-x="-8"
     inkscape:window-y="-8"
     inkscape:window-maximized="1"
     inkscape:current-layer="svg5404" />
  <g
     id="layer102"
     fill="#fcfcfc"
     stroke="none"
     style="fill:#ffffff;fill-opacity:1">
    <path
       d="M0 2479 c0 -300 1 -320 18 -315 54 15 171 27 209 22 59 -8 78 4 112 72 29 56 94 132 76 87 -98 -238 -164 -567 -135 -673 13 -49 57 -89 108 -98 75 -12 108 -24 169 -60 71 -42 312 -256 295 -262 -15 -5 -132 64 -251 148 -87 61 -180 116 -156 92 6 -5 58 -42 118 -81 144 -96 145 -110 4 -47 -32 14 -60 26 -63 26 -2 0 41 -44 97 -97 103 -100 147 -126 377 -226 33 -15 54 -36 101 -105 75 -109 155 -192 301 -313 122 -102 189 -170 285 -292 33 -42 63 -76 68 -77 4 0 -6 26 -22 58 -16 31 -40 94 -55 140 -37 117 -44 129 -137 212 -137 124 -181 177 -245 303 -23 46 -34 79 -32 100 3 32 4 31 59 -44 31 -41 92 -106 135 -145 170 -150 194 -176 229 -248 24 -49 39 -101 49 -166 16 -102 32 -155 65 -217 11 -21 22 -46 25 -55 14 -48 146 -108 235 -108 64 0 214 21 226 31 5 5 -52 9 -131 9 -156 0 -167 4 -180 69 -4 17 -12 30 -18 28 -12 -4 -12 -19 -2 -64 6 -27 5 -27 -30 12 -34 36 -36 34 -17 -14 10 -24 -31 5 -59 41 -58 76 -71 117 -79 239 -9 161 -32 204 -188 348 -155 143 -237 228 -266 277 -49 81 -81 213 -56 228 5 3 11 -12 15 -34 8 -51 105 -195 190 -282 36 -36 107 -100 158 -141 110 -87 168 -149 199 -208 19 -39 21 -55 17 -144 -3 -55 -2 -111 2 -125 l7 -25 13 27 c7 15 26 33 42 40 24 11 28 19 28 51 0 93 48 142 132 134 62 -5 228 -47 228 -57 0 -12 -41 -20 -103 -20 -75 0 -121 -19 -134 -56 -30 -87 -54 -167 -50 -170 3 -3 20 5 40 16 19 11 58 23 85 27 28 3 50 10 49 16 -1 5 9 13 23 17 14 4 44 17 67 28 25 13 61 22 87 22 26 0 46 5 48 12 7 21 368 42 368 22 0 -19 -45 -133 -58 -148 -23 -25 -74 -49 -161 -77 -81 -25 -82 -36 -2 -21 59 11 68 -1 14 -19 -21 -6 -76 -31 -123 -54 -124 -62 -179 -77 -292 -85 -5 0 -8 -6 -8 -13 0 -19 -110 -35 -176 -26 -66 9 -167 56 -211 97 -38 36 -103 134 -164 251 -60 113 -93 149 -214 232 -149 101 -242 185 -337 305 -64 81 -96 107 -223 186 -129 81 -248 135 -337 153 -79 15 -306 20 -405 9 l-53 -7 0 -623 0 -624 1460 0 1460 0 0 1400 0 1400 -1460 0 -1460 0 0 -321z m618 165 c-3 -32 -1 -54 5 -54 12 0 98 87 113 114 26 49 45 -22 24 -93 -14 -51 -3 -51 40 -2 25 28 40 39 45 31 7 -11 0 -65 -12 -96 -4 -12 1 -11 32 2 l37 15 -6 -28 c-12 -49 -46 -111 -69 -125 -12 -8 -44 -22 -70 -32 -26 -10 -55 -29 -64 -42 -17 -27 -40 -182 -30 -208 5 -14 12 -12 44 10 32 22 45 25 87 20 27 -3 78 -19 115 -36 36 -16 57 -23 46 -14 -25 20 -102 59 -135 69 -76 23 -130 48 -130 60 0 53 311 12 446 -58 16 -8 61 -38 99 -67 39 -29 109 -71 156 -95 53 -27 98 -58 118 -82 102 -120 104 -120 219 -62 66 33 89 50 94 69 4 14 16 65 27 114 11 49 29 105 39 125 69 131 110 212 125 248 27 62 65 86 156 93 42 4 90 12 106 19 17 7 32 12 35 11 3 0 6 8 8 20 8 47 32 7 32 -53 0 -19 -11 -39 -30 -59 -36 -36 -47 -31 -31 12 10 29 9 31 -7 24 -9 -4 -50 -10 -90 -14 -61 -6 -77 -11 -102 -35 -27 -26 -118 -199 -161 -308 -14 -35 -59 -213 -59 -233 0 -1 13 -5 30 -9 55 -12 77 -40 95 -116 9 -40 24 -88 33 -108 l17 -36 2 95 c3 101 -23 260 -43 267 -25 8 -25 -48 1 -102 38 -82 33 -98 -16 -47 -23 23 -54 49 -70 58 -16 8 -29 18 -29 22 0 5 16 24 36 43 55 53 89 115 128 235 51 153 98 195 220 193 l51 0 -60 -28 c-80 -38 -101 -63 -115 -139 -6 -35 -20 -97 -30 -138 -18 -71 -19 -79 -4 -157 11 -56 15 -118 12 -196 -4 -103 -6 -115 -27 -130 -21 -16 -21 -18 -6 -31 14 -12 18 -12 25 0 23 37 33 160 26 330 -6 155 -4 185 13 258 11 46 28 97 38 115 36 60 126 102 246 114 32 3 60 10 63 14 3 5 0 9 -6 9 -7 0 -9 8 -5 19 5 15 1 18 -21 13 -25 -4 -26 -3 -20 22 6 26 6 26 -34 20 -42 -7 -57 9 -19 21 11 4 35 19 52 34 41 36 83 47 103 26 23 -23 32 -18 36 18 l3 32 17 -25 c9 -14 19 -38 21 -54 5 -41 23 -43 41 -7 9 16 20 32 25 35 18 12 41 -25 41 -66 0 -36 -6 -47 -43 -83 -52 -49 -112 -69 -295 -95 -98 -14 -128 -22 -147 -40 -46 -43 -59 -174 -41 -405 12 -155 -5 -232 -86 -383 -38 -72 -78 -131 -105 -157 -23 -23 -43 -50 -43 -61 0 -11 25 -44 56 -74 99 -97 209 -285 259 -440 25 -79 60 -136 92 -148 16 -6 75 -10 133 -9 101 2 109 0 170 -30 36 -18 91 -56 123 -85 48 -46 57 -59 57 -88 0 -47 -31 -95 -78 -119 -39 -20 -112 -38 -112 -27 0 3 25 21 54 40 45 28 57 43 67 77 11 34 10 46 -2 68 -23 41 -76 54 -239 55 -130 0 -151 -2 -205 -23 -33 -13 -90 -31 -127 -41 -36 -10 -82 -29 -101 -44 -18 -14 -37 -26 -40 -26 -15 0 -6 79 11 99 14 18 34 24 102 31 47 5 123 18 170 29 47 12 123 21 170 22 59 1 76 4 55 9 -16 4 -77 5 -135 2 -117 -5 -138 1 -215 63 -22 18 -63 44 -91 58 -34 17 -64 43 -87 75 -57 77 -197 205 -275 252 -40 23 -75 46 -78 51 -27 45 235 -106 350 -201 129 -107 188 -151 195 -145 9 9 -101 215 -157 295 -74 103 -142 171 -243 240 -47 32 -99 73 -117 91 -34 35 -132 216 -132 243 0 33 57 -12 98 -77 44 -69 112 -135 168 -162 32 -15 37 -15 59 -1 40 26 70 118 70 216 0 120 -18 173 -80 237 -45 47 -56 53 -91 53 -42 0 -132 -26 -149 -42 -7 -7 2 -8 25 -4 104 19 138 19 173 -3 67 -41 114 -173 104 -288 -4 -35 -9 -68 -12 -74 -15 -23 -25 7 -25 70 0 110 -62 211 -130 211 -41 0 -45 -26 -13 -72 70 -98 90 -138 101 -202 14 -74 11 -86 -22 -86 -23 0 -79 53 -136 130 -59 80 -183 200 -245 237 -87 52 -153 100 -210 152 -160 146 -228 212 -223 217 6 5 62 -26 173 -98 81 -52 214 -120 175 -89 -14 11 -61 39 -105 62 -44 23 -105 59 -135 79 -65 44 -127 76 -184 96 -40 15 -40 13 42 -63 101 -95 112 -121 25 -56 -41 30 -42 21 -3 -24 31 -34 40 -60 18 -47 -7 4 -30 20 -50 36 -20 16 -58 38 -84 50 -41 18 -58 20 -123 14 -107 -10 -104 -10 -128 -2 -21 7 -23 4 -23 -28 0 -42 9 -44 73 -17 117 50 195 37 279 -49 46 -47 60 -69 73 -117 23 -86 36 -106 82 -128 56 -27 95 -66 129 -128 26 -48 28 -63 35 -207 7 -144 21 -219 48 -254 17 -23 20 -45 5 -39 -18 7 -58 74 -79 133 -21 58 -45 177 -45 218 0 40 -24 99 -53 130 -12 13 -53 44 -90 68 -47 30 -76 58 -95 90 -15 25 -46 72 -70 105 -52 73 -112 104 -214 112 l-68 5 0 -35 c0 -24 4 -33 13 -29 65 27 87 29 131 12 57 -22 120 -91 169 -183 39 -75 91 -226 84 -246 -2 -6 -27 36 -54 94 -94 198 -234 309 -300 237 -11 -13 -30 -42 -42 -66 -14 -27 -34 -48 -56 -59 -32 -15 -37 -15 -104 7 -110 35 -110 54 0 54 77 1 82 4 100 70 8 29 7 62 -5 138 -22 134 -20 245 4 347 11 46 19 85 17 87 -9 10 -77 -19 -77 -32 0 -8 -4 -12 -10 -9 -16 10 -11 61 8 78 9 8 43 22 75 30 56 15 97 40 97 59 0 5 -13 7 -30 3 -32 -7 -36 -1 -21 38 10 25 9 25 -22 16 -17 -5 -47 -20 -66 -34 -35 -24 -36 -24 -43 -5 -11 30 -53 26 -76 -7 -11 -16 -33 -56 -51 -90 -33 -66 -59 -95 -48 -52 4 13 12 55 17 94 13 85 29 111 77 124 56 15 80 36 109 94 23 44 28 48 36 33 6 -10 8 -43 6 -72z m-74 -186 c-5 -7 -19 -29 -32 -48 -28 -42 -25 -73 17 -139 38 -60 48 -98 56 -201 3 -47 11 -110 17 -141 12 -68 -2 -132 -35 -153 -12 -8 -47 -17 -77 -21 l-55 -6 30 26 c17 14 36 31 44 37 9 8 12 25 8 57 -3 25 -11 93 -17 151 -6 58 -23 151 -36 208 -26 107 -25 145 4 190 21 33 95 71 76 40z m-115 -195 c5 -10 20 -71 35 -135 33 -148 36 -308 6 -308 -5 0 -11 24 -15 53 -4 28 -23 88 -43 132 -31 68 -36 91 -35 150 0 100 27 155 52 108z m765 -398 c15 -23 86 -75 103 -75 4 0 -7 15 -24 33 -32 34 -58 77 -47 77 4 0 30 -17 58 -38 28 -21 81 -60 118 -85 36 -26 82 -65 101 -87 32 -38 187 -319 187 -340 0 -33 -146 32 -180 81 -11 15 -34 69 -50 120 -33 100 -56 144 -92 175 -23 19 -23 19 -6 -1 30 -36 67 -128 79 -200 14 -82 21 -99 62 -142 33 -35 63 -48 140 -58 27 -4 69 -15 94 -26 88 -38 288 -188 271 -204 -2 -3 -29 12 -59 34 -105 75 -246 130 -334 131 -33 0 3 -25 64 -45 205 -67 364 -176 455 -314 78 -119 68 -124 -41 -21 -120 114 -176 149 -342 212 -119 45 -181 58 -181 40 0 -21 65 -95 168 -191 127 -118 159 -170 169 -274 4 -49 2 -72 -12 -101 -21 -44 -28 -40 -30 17 -3 49 -33 125 -71 174 -14 19 -76 67 -137 107 -97 65 -119 84 -162 147 -75 110 -79 118 -86 199 -31 359 -38 383 -139 470 -140 122 -134 112 -127 186 8 79 19 101 28 57 3 -18 14 -44 23 -58z m-337 -153 c36 -20 106 -106 146 -180 39 -72 77 -201 77 -258 0 -108 -46 -192 -98 -179 -56 13 -226 134 -211 149 3 3 34 -6 68 -21 74 -32 92 -26 105 35 18 85 -61 258 -135 295 -44 21 -81 11 -116 -31 -19 -23 -24 -25 -33 -12 -15 21 -3 96 23 150 35 73 99 92 174 52z m313 -149 c56 -88 64 -158 51 -424 -1 -8 -15 -37 -32 -63 -31 -46 -72 -76 -104 -76 -14 0 -13 7 9 46 30 54 31 55 11 48 -11 -5 -8 10 12 62 24 61 27 82 27 179 -1 97 -5 120 -32 197 -18 49 -32 93 -32 98 0 23 63 -24 90 -67z m1620 -1146 c0 -25 -17 -47 -37 -47 -16 0 -17 24 -3 51 15 27 40 24 40 -4z"
       id="path5379"
       style="fill:#ffffff;fill-opacity:1" />
    <path
       d="M32 2113 c-54 -7 -36 -23 26 -23 72 0 132 10 132 21 0 9 -94 10 -158 2z"
       id="path5381"
       style="fill:#ffffff;fill-opacity:1" />
    <path
       d="M18 2013 c-10 -2 -18 -12 -18 -22 0 -16 4 -17 63 -3 100 22 110 31 37 30 -36 0 -73 -2 -82 -5z"
       id="path5383"
       style="fill:#ffffff;fill-opacity:1" />
    <path
       d="M0 1882 c0 -27 8 -66 19 -88 21 -43 20 -54 -4 -34 -24 20 -20 -76 5 -117 22 -37 38 -46 107 -63 29 -6 57 -18 64 -26 10 -12 -2 -14 -74 -14 -103 0 -117 -5 -117 -37 0 -21 4 -24 23 -19 12 3 71 6 132 6 85 0 106 3 97 12 -16 16 -15 31 2 25 10 -4 8 8 -7 46 -17 43 -21 75 -21 189 -1 136 -7 156 -20 66 -13 -89 -46 -71 -46 24 l0 57 -37 10 c-21 6 -57 11 -80 11 l-43 0 0 -48z"
       id="path5385"
       style="fill:#ffffff;fill-opacity:1" />
    <path
       d="M280 1505 c0 -12 85 -65 104 -64 15 0 17 2 6 6 -8 3 -34 19 -57 34 -41 28 -53 34 -53 24z"
       id="path5387"
       style="fill:#ffffff;fill-opacity:1" />
    <path
       d="M0 1432 c0 -11 13 -15 145 -37 136 -23 275 -56 275 -66 0 -12 -19 -11 -94 1 -70 11 -326 18 -326 9 0 -4 64 -10 143 -13 132 -7 309 -33 374 -56 l28 -10 -30 26 c-54 47 -186 104 -286 124 -125 24 -229 34 -229 22z"
       id="path5389"
       style="fill:#ffffff;fill-opacity:1" />
    <path
       d="M438 1413 c7 -3 16 -2 19 1 4 3 -2 6 -13 5 -11 0 -14 -3 -6 -6z"
       id="path5391"
       style="fill:#ffffff;fill-opacity:1" />
    <path
       d="M2498 403 c6 -2 18 -2 25 0 6 3 1 5 -13 5 -14 0 -19 -2 -12 -5z"
       id="path5393"
       style="fill:#ffffff;fill-opacity:1" />
    <path
       d="M2585 353 l-50 -26 -120 17 c-106 15 -157 15 -204 0 -10 -3 -11 -8 -2 -18 9 -11 1 -14 -49 -18 -62 -4 -112 -30 -118 -60 -4 -23 130 -55 164 -39 13 6 24 15 24 19 0 5 12 22 28 37 25 25 31 27 86 21 42 -4 74 -1 113 11 40 13 56 14 65 5 8 -8 4 -14 -17 -22 -15 -6 -25 -13 -22 -16 8 -9 118 43 144 68 22 21 31 48 16 48 -5 -1 -30 -13 -58 -27z"
       id="path5395"
       style="fill:#ffffff;fill-opacity:1" />
    <path
       d="M1912 320 c0 -19 2 -27 5 -17 2 9 2 25 0 35 -3 9 -5 1 -5 -18z"
       id="path5397"
       style="fill:#ffffff;fill-opacity:1" />
    <path
       d="M2305 181 c-3 -5 0 -13 5 -16 15 -9 60 3 60 15 0 13 -57 13 -65 1z"
       id="path5399"
       style="fill:#ffffff;fill-opacity:1" />
    <path
       d="M1970 56 c0 -2 18 -6 40 -8 22 -2 40 0 40 4 0 5 -18 8 -40 8 -22 0 -40 -2 -40 -4z"
       id="path5401"
       style="fill:#ffffff;fill-opacity:1" />
  </g>
</svg>
