<?xml version="1.0" encoding="UTF-8" standalone="no"?>
<!-- Created with Inkscape (http://www.inkscape.org/) -->

<svg
   width="6.789875mm"
   height="10.09407mm"
   viewBox="0 0 6.789875 10.09407"
   version="1.1"
   id="svg5"
   xml:space="preserve"
   xmlns="http://www.w3.org/2000/svg"
   xmlns:svg="http://www.w3.org/2000/svg"><defs
     id="defs2" /><g
     id="layer1"
     transform="translate(55.02564,-251.14262)"><path
       style="fill:#ffffff;fill-opacity:1;stroke-width:0.019738"
       d="m -54.755521,261.22231 c -0.08974,-0.0272 -0.184066,-0.11075 -0.228618,-0.20287 l -0.0415,-0.0857 v -3.80383 c 0,-3.38868 0.0033,-3.81184 0.03056,-3.87696 0.04075,-0.0975 0.100888,-0.16002 0.196438,-0.20412 0.07568,-0.0349 0.206836,-0.0365 3.163647,-0.0368 2.740225,-4.2e-4 3.092861,0.004 3.157809,0.0301 0.09754,0.0409 0.160021,0.10095 0.204121,0.19643 0.03503,0.0759 0.03645,0.22702 0.03687,3.89022 l 4.31e-4,3.81126 -0.04593,0.087 c -0.02525,0.0478 -0.08377,0.1137 -0.129995,0.14621 l -0.08408,0.0591 -3.102102,0.004 c -1.706155,0.002 -3.127105,-0.005 -3.157666,-0.0135 z m 5.150305,-1.53192 c 0.208679,-0.0989 0.217621,-0.39939 0.01535,-0.51537 l -0.0769,-0.044 h -1.963931 -1.963929 l -0.0769,0.044 c -0.20074,0.11512 -0.193716,0.41313 0.01213,0.51459 0.05834,0.0287 0.259762,0.032 2.025723,0.0324 1.76896,4.1e-4 1.967559,-0.002 2.028467,-0.0316 z m -2.28855,-1.20677 c 0.07933,-0.0565 0.134564,-0.1937 0.116603,-0.28945 -0.01627,-0.0868 -0.09815,-0.18596 -0.182592,-0.22123 -0.05062,-0.0211 -0.22632,-0.0269 -0.81875,-0.0269 -0.713986,0 -0.758677,0.002 -0.835866,0.0394 -0.215281,0.10414 -0.218592,0.41403 -0.0055,0.52016 0.05725,0.0285 0.157511,0.0318 0.864166,0.0275 0.794994,-0.005 0.799732,-0.005 0.861999,-0.0495 z m 2.342045,-1.35405 c 0.150706,-0.0629 0.220407,-0.22564 0.162103,-0.37831 -0.04194,-0.1098 -0.122065,-0.16818 -0.252989,-0.18429 -0.09946,-0.0123 -0.101679,-0.014 -0.117441,-0.0914 -0.04354,-0.21409 -0.172325,-0.51674 -0.29751,-0.69917 -0.09214,-0.13425 -0.325937,-0.3719 -0.460037,-0.46758 -0.181176,-0.12929 -0.420053,-0.24135 -0.62445,-0.29292 l -0.182721,-0.0461 -0.0111,-0.1272 c -0.01743,-0.1981 -0.124555,-0.31121 -0.294749,-0.31121 -0.170193,0 -0.277316,0.11311 -0.294748,0.31121 l -0.0111,0.1272 -0.182721,0.0461 c -0.304518,0.0769 -0.570711,0.22624 -0.816819,0.4584 -0.286481,0.27025 -0.489744,0.63035 -0.565176,1.00127 -0.01575,0.0775 -0.01797,0.0792 -0.117442,0.0914 -0.130923,0.0161 -0.211052,0.0745 -0.252986,0.18429 -0.04161,0.10897 -0.02688,0.20336 0.04504,0.28884 0.101502,0.12063 -0.0093,0.11488 2.191743,0.11559 1.661753,6.1e-4 2.030242,-0.005 2.08328,-0.0261 z m -3.361951,-0.57199 c 0,-0.024 0.08164,-0.23699 0.118792,-0.30998 0.17124,-0.33658 0.535795,-0.60775 0.914255,-0.68006 0.194868,-0.0372 0.304981,-0.0372 0.499847,0 0.461133,0.0881 0.839582,0.42095 0.996179,0.87609 0.02027,0.0588 0.03686,0.11028 0.03686,0.11394 0,0.004 -0.577336,0.007 -1.282969,0.007 -0.705634,0 -1.282971,-0.002 -1.282971,-0.007 z m -0.80761,-4.14587 c 0.0045,-0.005 0.877109,-0.29401 1.939085,-0.64396 1.761208,-0.5804 1.93897,-0.63521 2.023144,-0.62389 0.121769,0.0163 0.239294,0.0998 0.294598,0.20918 0.04249,0.0841 0.04442,0.10886 0.04442,0.57707 v 0.48926 h -2.154732 c -1.185103,0 -2.151029,-0.004 -2.146505,-0.008 z"
       id="path20582" /></g></svg>
