<?xml version="1.0" encoding="UTF-8" standalone="no"?>
<!-- Created with Inkscape (http://www.inkscape.org/) -->

<svg
   width="11.050545mm"
   height="8.3310699mm"
   viewBox="0 0 11.050545 8.3310699"
   version="1.1"
   id="svg5"
   xml:space="preserve"
   xmlns="http://www.w3.org/2000/svg"
   xmlns:svg="http://www.w3.org/2000/svg"><defs
     id="defs2" /><g
     id="layer1"
     transform="translate(43.604585,-252.77827)"><path
       style="fill:#ffffff;fill-opacity:1;stroke-width:0.021583"
       d="m -43.437496,261.06142 c -0.04961,-0.0289 -0.09782,-0.0815 -0.124099,-0.13588 -0.04244,-0.0877 -0.04299,-0.13821 -0.04299,-3.98173 0,-3.84887 5.03e-4,-3.89392 0.04317,-3.98209 0.02752,-0.0567 0.07359,-0.1062 0.127035,-0.13625 l 0.08387,-0.0472 h 5.271197 5.2712 l 0.08387,0.0472 c 0.05345,0.0302 0.09953,0.0795 0.127033,0.13625 0.04267,0.0882 0.04317,0.13322 0.04317,3.98209 0,3.84887 -5.02e-4,3.89392 -0.04317,3.9821 -0.02752,0.0567 -0.07359,0.10637 -0.127033,0.13624 l -0.08387,0.0472 -5.274139,-3.7e-4 -5.274135,-3.5e-4 z m 6.281064,-2.26125 c 0.150584,-0.0918 0.205584,-0.31455 0.114191,-0.46245 -0.02604,-0.0422 -0.295686,-0.25005 -0.706846,-0.54506 -0.365614,-0.26232 -0.686961,-0.49504 -0.714102,-0.51716 l -0.04936,-0.0402 0.85662,-0.61513 c 0.471142,-0.33831 0.900113,-0.64264 0.95327,-0.67627 0.111898,-0.0708 0.242372,-0.0808 0.347068,-0.0267 0.03664,0.0189 0.744309,0.52114 1.572579,1.116 0.82827,0.59486 1.518086,1.08625 1.532924,1.09196 0.02148,0.008 0.027,-0.46722 0.027,-2.33365 v -2.34408 h -4.856204 -4.856204 v 2.34408 c 0,1.86643 0.0055,2.34197 0.02699,2.33369 0.01475,-0.005 0.481361,-0.33683 1.036718,-0.73576 0.555357,-0.39896 1.029868,-0.73616 1.054467,-0.74932 0.06762,-0.0361 0.214891,-0.0311 0.294561,0.0106 0.03901,0.0201 0.724919,0.50634 1.524242,1.08039 0.799324,0.57401 1.481262,1.05881 1.515419,1.07731 0.08819,0.0478 0.241661,0.0441 0.326694,-0.007 z m -2.205456,-2.71207 c -0.598589,-0.18373 -0.829979,-0.93456 -0.436366,-1.41593 0.395164,-0.48327 1.127932,-0.43905 1.462344,0.0883 0.150174,0.2368 0.170077,0.58651 0.04819,0.84698 -0.110029,0.23511 -0.312154,0.40851 -0.566023,0.48556 -0.128564,0.039 -0.372695,0.0366 -0.508147,-0.005 z"
       id="path22438" /></g></svg>
