<?xml version="1.0" encoding="UTF-8" standalone="no"?>
<!-- Created with Inkscape (http://www.inkscape.org/) -->

<svg
   width="52.916702mm"
   height="110.42291mm"
   viewBox="0 0 52.916702 110.42291"
   version="1.1"
   id="svg5"
   xml:space="preserve"
   xmlns="http://www.w3.org/2000/svg"
   xmlns:svg="http://www.w3.org/2000/svg"><defs
     id="defs2" /><g
     id="layer1"
     transform="translate(-67.303766,-75.753645)"><path
       style="fill:#ffffff;fill-opacity:1;stroke-width:0.264583"
       d="M 93.100643,185.96368 92.306893,185.7508 79.805331,173.22889 67.303769,160.70697 v -1.06271 -1.06271 l 0.520216,-0.55838 c 0.286119,-0.30711 0.770962,-0.63797 1.077429,-0.73524 l 0.557212,-0.17686 0.708509,0.17277 0.708509,0.17277 11.443229,11.42254 11.443228,11.42254 11.443229,-11.42254 11.44323,-11.42254 0.70851,-0.17277 0.70851,-0.17277 0.55721,0.17686 c 0.30647,0.0973 0.79131,0.42813 1.07743,0.73524 l 0.52022,0.55838 v 1.06271 1.06271 l -12.48744,12.5057 -12.487432,12.50569 -0.67559,0.2291 -0.675585,0.2291 z m -15.193241,-55.68355 -0.81405,-0.68498 0.0084,-0.96867 0.0084,-0.96867 0.322314,-0.4198 c 0.177273,-0.23089 0.582378,-0.55832 0.900233,-0.72761 l 0.57792,-0.3078 h 14.851454 14.851457 l 0.57792,0.3078 c 0.31785,0.16929 0.72296,0.49672 0.90023,0.72761 l 0.32231,0.4198 0.008,0.96867 0.008,0.96867 -0.81405,0.68498 -0.81405,0.68497 H 93.762101 78.721453 Z m -9.413008,-25.82835 c -0.291042,-0.16691 -0.674208,-0.49071 -0.851481,-0.71955 l -0.322315,-0.41608 -0.0084,-1.04646 -0.0084,-1.04645 12.501562,-12.521918 12.501562,-12.521912 0.79375,-0.212882 0.79375,-0.212882 0.675586,0.229104 0.67559,0.229103 12.487432,12.505691 12.48744,12.505696 v 1.0627 1.06272 l -0.53649,0.57585 c -0.29507,0.31672 -0.82226,0.64758 -1.17153,0.73524 l -0.63504,0.15938 -0.61441,-0.18372 -0.61441,-0.18373 L 105.20386,93.038622 93.759151,81.625568 82.44969,92.906225 c -6.220205,6.20436 -11.569526,11.412165 -11.887381,11.572895 -0.729487,0.36888 -1.392324,0.36012 -2.067915,-0.0273 z"
       id="path322" /></g></svg>
